<svg id="Artwork" xmlns="http://www.w3.org/2000/svg" xmlns:xlink="http://www.w3.org/1999/xlink" viewBox="0 0 600 600"><defs><style>.cls-1{fill:none;}.cls-2{clip-path:url(#clip-path);}.cls-3{fill:#ababab;}.cls-4{clip-path:url(#clip-path-2);}.cls-5{fill:#aeaeae;}.cls-6{fill:#2fe5c8;}.cls-7{clip-path:url(#clip-path-3);}.cls-8{fill:#03324b;}.cls-9{fill:#35c733;}.cls-10{fill:#c3f6a2;}.cls-11{fill:#fff;}.cls-12{fill:#ccc;}.cls-13{fill:#c1f89a;}</style><clipPath id="clip-path"><circle class="cls-1" cx="-330.95" cy="-368" r="240.53"/></clipPath><clipPath id="clip-path-2"><circle class="cls-1" cx="300" cy="-368" r="240.53"/></clipPath><clipPath id="clip-path-3"><path class="cls-1" d="M609.91,25.91H18.11V365.16H80.27C92.6,470.4,182.07,552.07,290.62,552.07S488.64,470.4,501,365.16h36.15Z"/></clipPath></defs><title>Grasshopper_Website_Illustrations</title><g class="cls-2"><path class="cls-3" d="M35.16-543.17-707.35-153,32.43,314.28,65.77-523.84A20.9,20.9,0,0,0,35.16-543.17Z"/></g><g class="cls-4"><path class="cls-5" d="M578.75-517.74a21.84,21.84,0,0,0-38.58,0L120.7,271.47H998.21Z"/><path class="cls-5" d="M66.26-517.74a21.84,21.84,0,0,0-38.58,0L-391.78,271.47h877.5Z"/></g><circle class="cls-6" cx="290.62" cy="340.25" r="211.82"/><g class="cls-7"><path class="cls-8" d="M417.91,253.4v-3.32c75.43,0,136.79-61.37,136.79-136.79v-1.67h14.18V115H558C557.12,191.44,494.61,253.4,417.91,253.4Z"/><path class="cls-9" d="M530.32,455.42l-74-223.5a124.82,124.82,0,0,0-30.2,33.93A124.85,124.85,0,0,0,396,231.92L322,455.42a125,125,0,0,0,104.16-60A125,125,0,0,0,530.32,455.42Z"/><polygon class="cls-8" points="446 666.62 431.23 666.59 443.34 535.99 433.55 358.62 436.87 358.44 446.67 536.05 434.87 663.27 446 663.3 446 666.62"/><polygon class="cls-8" points="419.27 666.56 404.5 666.53 404.51 663.21 415.63 663.23 404.4 535.96 414.98 358.39 418.3 358.59 407.73 535.91 419.27 666.56"/><path class="cls-10" d="M429.56,190.45c-1.07-.07-2.15-.1-3.23-.1h0c-1.08,0-2.16,0-3.23.1-40.9,2.57-66.7,56.17-51,103.15l.22.65c6.32,19.12,12.41,38.34,17.52,57.82a37.71,37.71,0,0,0,73-.33c4.91-19.41,11.14-38.47,17.42-57.49l.19-.56C496.27,246.72,470.49,193,429.56,190.45Z"/><path class="cls-9" d="M389.24,167.43a46.85,46.85,0,1,0,74.15,0Z"/><circle class="cls-11" cx="386.09" cy="182.51" r="17.6"/><circle class="cls-8" cx="386.09" cy="182.51" r="3.77"/><circle class="cls-11" cx="466.53" cy="182.51" r="17.6"/><circle class="cls-8" cx="466.53" cy="182.51" r="3.77"/><path class="cls-8" d="M426.31,199.26A19.27,19.27,0,0,1,407.06,180h3.32a15.94,15.94,0,0,0,31.87,0h3.32A19.28,19.28,0,0,1,426.31,199.26Z"/><path class="cls-8" d="M418.28,167.22H415V40.91a5.79,5.79,0,1,0-11.57,0h-3.33a9.11,9.11,0,1,1,18.22,0Z"/><path class="cls-8" d="M437.36,167.22H434V40.91a9.11,9.11,0,0,1,18.22,0h-3.32a5.79,5.79,0,1,0-11.57,0Z"/><path class="cls-8" d="M398.38,307.19H333.22a15.49,15.49,0,1,1,0-31H369v3.32H333.22a12.17,12.17,0,1,0,0,24.33H396.1l2.5-6.48,3.1,1.2Z"/><path class="cls-8" d="M403.91,269H333.22a15.49,15.49,0,1,1,0-31h38.24v3.33H333.22a12.16,12.16,0,1,0,0,24.32h68.41l2.5-6.47,3.1,1.19Z"/><path class="cls-12" d="M383.26,288.79h0c-7,2.47-14.33.41-17.33-4.83l-16.38-28.57c-3.7-6.46.66-15,9.22-18l11.1-3.93c8.56-3,17.32.83,18.51,8.17l5.29,32.51C394.64,280.09,390.21,286.33,383.26,288.79Z"/><path class="cls-3" d="M393.67,274.12l-4.48-27.55a42.51,42.51,0,0,0-24.67,32.18c-.12.78-.17,1.55-.25,2.32l1.66,2.89c3,5.24,10.37,7.3,17.33,4.83S394.64,280.09,393.67,274.12Z"/><path class="cls-8" d="M358.79,241.44l-10.3-29a1.51,1.51,0,0,0-1.92-.91,1.43,1.43,0,0,0-.85.77,1.48,1.48,0,0,0-.07,1.15l-3.13,1.11a4.84,4.84,0,0,1,2.94-6.17,4.84,4.84,0,0,1,6.16,2.94l10.3,29Z"/><path class="cls-8" d="M369.92,237.77l-10.3-29a4.83,4.83,0,0,1,9.11-3.23l-3.13,1.11a1.51,1.51,0,1,0-2.84,1l10.29,29Z"/><path class="cls-9" d="M372.74,244.76,379,234.55a4.41,4.41,0,0,0-5.23-6.47l-21.4,7.59a4.41,4.41,0,0,0,0,8.32l11.3,4A7.65,7.65,0,0,0,372.74,244.76Z"/><circle class="cls-11" cx="348.59" cy="239.28" r="7.49"/><circle class="cls-8" cx="348.59" cy="239.28" r="1.6"/><circle class="cls-11" cx="378.98" cy="228.5" r="7.49"/><circle class="cls-8" cx="378.98" cy="228.5" r="1.6"/><path class="cls-8" d="M364.31,244.08a8.69,8.69,0,0,1-8.16-5.78l3.13-1.11a5.36,5.36,0,0,0,6.83,3.26,5.36,5.36,0,0,0,3.25-6.83l3.13-1.11a8.67,8.67,0,0,1-8.18,11.57Z"/><rect class="cls-11" x="429.76" y="260.59" width="35.45" height="58.49" rx="5.91" ry="5.91" transform="translate(51.78 -67.47) rotate(9.15)"/><path class="cls-8" d="M449.56,277.11l-2.83-1.7a3.94,3.94,0,0,0,.45,2.56l-4-.64c0,2.17,2.46,4.33,5.13,4.76h0l-1.49,1.07a.46.46,0,1,0,.54.75l2.22-1.61h0l-.26,1.58a.47.47,0,0,0,.37.54.46.46,0,0,0,.54-.38l.26-1.61.91.15-.26,1.59a.47.47,0,0,0,.37.54.45.45,0,0,0,.54-.38l.26-1.6h0A5.46,5.46,0,0,0,449.56,277.11Z"/><path class="cls-8" d="M454.21,279.1l-.58-.09a4.58,4.58,0,0,1,.71-1.79.4.4,0,0,0-.27-.63.39.39,0,0,0-.39.15,4.49,4.49,0,0,0-.95,2.12,4.1,4.1,0,0,0,1.93,4.17l.18.1.42-2.57A1.28,1.28,0,0,0,454.21,279.1Z"/><path class="cls-8" d="M403.91,269H333.22a15.49,15.49,0,1,1,0-31v3.33a12.16,12.16,0,1,0,0,24.32h68.41l2.5-6.47,3.1,1.19Z"/><path class="cls-8" d="M520,307.19H454.79l-3.33-8.6,3.1-1.2,2.51,6.48H520a12.17,12.17,0,0,0,0-24.33H484.13v-3.32H520a15.49,15.49,0,1,1,0,31Z"/><path class="cls-9" d="M1,595.81c70.78-3.28,141.57-58.06,173.68-142s15.95-172-34.58-221.69Z"/><polygon class="cls-8" points="184.35 685.66 170.53 685.64 181.77 564.38 172.69 399.87 176.01 399.69 185.1 564.44 174.17 682.32 184.36 682.34 184.35 685.66"/><polygon class="cls-8" points="159.69 685.61 145.86 685.58 145.87 682.26 156.06 682.28 145.65 564.36 155.47 399.65 158.79 399.84 148.98 564.31 159.69 685.61"/><path class="cls-8" d="M178.89,282.89c-76.71,0-139.22-62-140.11-138.45H27.91v-3.33H42.09v1.67c0,75.42,61.37,136.79,136.8,136.79Z"/><path class="cls-8" d="M144.77,282.89v-3.32c75.43,0,136.8-61.37,136.8-136.79v-1.67h14.18v3.33H284.88C284,220.93,221.48,282.89,144.77,282.89Z"/><path class="cls-8" d="M168.63,294.07c-76.71,0-139.22-62-140.11-138.46H17.65v-3.32H31.83V154c0,75.43,61.37,136.8,136.8,136.8Z"/><path class="cls-8" d="M157.28,294.07v-3.32c75.43,0,136.79-61.37,136.79-136.8v-1.66h14.18v3.32H297.39C296.49,232.11,234,294.07,157.28,294.07Z"/><path class="cls-8" d="M173.16,221.86h-3.32l.27-123.65a8.33,8.33,0,0,1,8.29-8.28h0a8.33,8.33,0,0,1,8.28,8.31h-3.33a5,5,0,0,0-5-5h0a5,5,0,0,0-5,5Z"/><path class="cls-8" d="M159.67,221.84h-3.33l.27-123.66a5,5,0,0,0-5-5h0a5,5,0,0,0-5,5h-3.33a8.3,8.3,0,0,1,8.29-8.27h0a8.3,8.3,0,0,1,8.28,8.31Z"/><path class="cls-10" d="M157.38,444.42l13.88,0c16.72,0,30-15,29.06-32.85l-8.24-184.11-54.7-.12-8.92,184.08C127.42,429.29,140.66,444.38,157.38,444.42Z"/><path class="cls-9" d="M160.1,252.85l-57.8-33.54a2.26,2.26,0,0,1,1.14-4.22l122.66.27a2.27,2.27,0,0,1,1.12,4.23l-57.95,33.28A9.16,9.16,0,0,1,160.1,252.85Z"/><circle class="cls-11" cx="220.71" cy="219.82" r="15.67"/><circle class="cls-8" cx="220.71" cy="219.82" r="3.36"/><circle class="cls-11" cx="108.81" cy="219.58" r="15.67"/><circle class="cls-8" cx="108.81" cy="219.58" r="3.36"/><path class="cls-8" d="M164.76,243.59h-.06a24.16,24.16,0,0,1-24.09-24.19h3.33a20.81,20.81,0,0,0,20.77,20.87h0a20.85,20.85,0,0,0,20.82-20.77h3.32A24.16,24.16,0,0,1,164.76,243.59Z"/><polygon class="cls-8" points="305.04 697.21 289.92 697.18 302.36 606.7 291.68 481.78 294.99 481.5 305.7 606.78 293.73 693.86 305.05 693.89 305.04 697.21"/><polygon class="cls-8" points="277.79 697.15 262.67 697.12 262.68 693.79 274 693.82 262.6 606.69 262.61 606.52 272.73 481.47 276.04 481.74 265.94 606.61 277.79 697.15"/><path class="cls-8" d="M311.53,492.23c-78.31,0-142.12-63.26-143-141.36H157.39v-3.32h14.45v1.66c0,77,62.66,139.7,139.69,139.7Z"/><path class="cls-8" d="M301.53,499.74c-78.31,0-142.12-63.26-143-141.36H147.39v-3.33h14.44v1.66c0,77,62.67,139.7,139.7,139.7Z"/><path class="cls-8" d="M294.38,412h-3.33l.28-123.66a8.3,8.3,0,0,1,8.29-8.27h0a8.31,8.31,0,0,1,8.27,8.31h-3.32a5,5,0,0,0-5-5h0a5,5,0,0,0-5,5Z"/><path class="cls-8" d="M280.88,412h-3.32l.27-123.65a5,5,0,0,0-5-5h0a5,5,0,0,0-5,5h-3.32a8.3,8.3,0,0,1,8.29-8.27h0a8.29,8.29,0,0,1,8.27,8.31Z"/><path class="cls-9" d="M407.9,594.73a81.19,81.19,0,0,1-48.09-145.34Z"/><circle class="cls-13" cx="284.37" cy="479.34" r="83.66"/><path class="cls-9" d="M307.61,450.89l39.29-56a3.38,3.38,0,0,0-2.74-5.32l-114.37-.94a3.39,3.39,0,0,0-2.83,5.28l38.37,56.66A25.68,25.68,0,0,0,307.61,450.89Z"/><circle class="cls-11" cx="233.62" cy="406.76" r="20.19"/><circle class="cls-8" cx="233.62" cy="406.76" r="4.33"/><circle class="cls-11" cx="340.36" cy="407.63" r="20.19"/><circle class="cls-8" cx="340.36" cy="407.63" r="4.33"/><path class="cls-8" d="M287,440.59h-.23a27.65,27.65,0,0,1-27.4-27.85l3.32,0a24.31,24.31,0,0,0,24.1,24.5H287a24.31,24.31,0,0,0,24.29-24.1l3.33,0A27.62,27.62,0,0,1,287,440.59Z"/><rect class="cls-11" x="286.83" y="482.92" width="35.45" height="58.49" rx="5.91" ry="5.91" transform="translate(85.32 -41.91) rotate(9.15)"/><path class="cls-8" d="M306.63,499.44l-2.83-1.7a3.88,3.88,0,0,0,.46,2.56l-4-.64c.05,2.17,2.46,4.33,5.13,4.76h0l-1.49,1.08a.46.46,0,0,0,.54.75l2.23-1.62,0,0-.25,1.57a.47.47,0,0,0,.37.54.45.45,0,0,0,.53-.38l.26-1.6.91.14-.26,1.59a.49.49,0,0,0,.37.55.47.47,0,0,0,.54-.38l.26-1.61h0A5.46,5.46,0,0,0,306.63,499.44Z"/><path class="cls-8" d="M311.28,501.43l-.58-.09a4.6,4.6,0,0,1,.72-1.79.41.41,0,0,0-.67-.48,4.58,4.58,0,0,0-.95,2.13,4.09,4.09,0,0,0,1.93,4.16l.19.11.41-2.58A1.28,1.28,0,0,0,311.28,501.43Z"/><path class="cls-8" d="M350.21,517.11H299.37l-8.45-7.56,2.22-2.47,7.5,6.71h49.57a14.22,14.22,0,0,0,14.2-14.2h3.33A17.55,17.55,0,0,1,350.21,517.11Z"/><path class="cls-8" d="M350.21,477.52H299.37L290.92,470l2.22-2.47,7.5,6.71h49.57a14.22,14.22,0,0,0,14.2-14.2h3.33A17.55,17.55,0,0,1,350.21,477.52Z"/></g></svg>