<?xml version="1.0" encoding="utf-8"?>
<!-- Generator: Adobe Illustrator 22.1.0, SVG Export Plug-In . SVG Version: 6.00 Build 0)  -->
<svg version="1.1" id="Artwork" xmlns="http://www.w3.org/2000/svg" xmlns:xlink="http://www.w3.org/1999/xlink" x="0px" y="0px"
	 viewBox="0 0 481.1 443.7" style="enable-background:new 0 0 481.1 443.7;" xml:space="preserve">
<style type="text/css">
	.st0{fill:#2FE5C8;}
	.st1{fill:#ABABAB;}
	.st2{fill:#FFFFFF;}
	.st3{fill:#E1E1E1;}
	.st4{fill:#03324B;}
	.st5{fill:#45C14E;}
	.st6{fill:#C1F89A;}
</style>
<title>Grasshopper_Website_Illustrations</title>
<circle class="st0" cx="269.3" cy="218" r="211.8"/>
<path class="st1" d="M59.7,248.4c14.7,102.6,103,181.4,209.6,181.4S464.2,351,478.9,248.4L59.7,248.4z"/>
<path class="st2" d="M445.4,115.9C445.4,51.9,393.5,0,329.4,0c-2.8,0-5.6,0.1-8.3,0.3c-57.4,4-103.7,50.7-107.3,108
	c-1.9,27.9,6.5,55.5,23.4,77.7c29.3,38.5,43.8,86.1,43.8,134.5h96.9c0.1-49,15.9-96.7,45-136.1C437.5,164.5,445.4,140.5,445.4,115.9
	z"/>
<path class="st0" d="M343.1,297.7h-3.3V110.8h-17.4v186.9h-3.3V110.8h-20.5c-5.7,0-10.4-4.7-10.4-10.4c0-5.7,4.7-10.4,10.4-10.4H312
	c5.7,0,10.4,4.7,10.4,10.4v7.1h17.4v-7.1c0-5.7,4.7-10.4,10.4-10.4h13.5c5.7,0,10.4,4.7,10.4,10.4c0,5.7-4.7,10.4-10.4,10.4h-20.6
	V297.7z M343.1,107.4h20.5c3.9-0.1,7-3.4,6.8-7.3c-0.1-3.7-3.1-6.7-6.8-6.8h-13.5c-3.9,0-7.1,3.2-7.1,7.1V107.4z M298.6,93.3
	c-3.9,0.1-7,3.4-6.8,7.3c0.1,3.7,3.1,6.7,6.8,6.8h20.5v-7.1c0-3.9-3.2-7.1-7.1-7.1L298.6,93.3z"/>
<path class="st3" d="M281.4,297.7h96.1c4.6,0,8.4,3.8,8.4,8.4v0c0,4.6-3.8,8.4-8.4,8.4h-96.1c-4.6,0-8.4-3.8-8.4-8.4v0
	C273,301.5,276.7,297.7,281.4,297.7z"/>
<path class="st2" d="M281.4,314.6h96.1c4.6,0,8.4,3.8,8.4,8.4v0c0,4.6-3.8,8.4-8.4,8.4h-96.1c-4.6,0-8.4-3.8-8.4-8.4v0
	C273,318.3,276.7,314.6,281.4,314.6z"/>
<path class="st3" d="M281.4,331.2h96.1c4.6,0,8.4,3.8,8.4,8.4v0c0,4.6-3.8,8.4-8.4,8.4h-96.1c-4.6,0-8.4-3.8-8.4-8.4v0
	C273,335,276.7,331.2,281.4,331.2z"/>
<polygon class="st4" points="103.9,443.7 103.9,440.4 115.3,440.3 103.3,352.4 103.3,352.2 114.1,225.8 117.4,226.1 106.6,352.3 
	119.2,443.6 "/>
<polygon class="st4" points="131.5,443.6 143.4,352.2 133.2,226 136.5,225.8 146.8,352.3 146.7,352.4 135.2,440.3 146.7,440.3 
	146.7,443.6 "/>
<path class="st4" d="M103,242.3v-3.3c77.8,0,141.1-63.3,141.1-141.1v-1.7h14.6v3.3h-11.3C246.6,178.4,182.1,242.3,103,242.3z"/>
<path class="st4" d="M113.1,249.8v-3.3c77.8,0,141.1-63.3,141.1-141.1v-1.7h14.6v3.3h-11.2C256.6,185.9,192.2,249.8,113.1,249.8z"/>
<path class="st5" d="M0,340.2c45.3-0.9,81.2-38.4,80.3-83.6c-0.5-24.8-12.2-48-31.8-63.2L0,340.2z"/>
<path class="st4" d="M140.9,137.4l-3.3-0.3l9.5-120.7c0.6-3.8-1.9-7.4-5.7-8.1c-3.8-0.6-7.4,1.9-8.1,5.7c-0.1,0.4-0.1,0.8-0.1,1.3
	l-3.3-0.3c0.6-5.7,5.6-9.8,11.3-9.2c5.5,0.6,9.5,5.3,9.2,10.8L140.9,137.4z"/>
<path class="st4" d="M113.7,135.2l-3.3-0.3l9.5-120.7c0.6-3.8-1.9-7.4-5.7-8.1s-7.4,1.9-8.1,5.7c-0.1,0.4-0.1,0.8-0.1,1.3l-3.3-0.3
	c0.3-5.7,5.2-10,10.8-9.7c5.7,0.3,10,5.2,9.7,10.8c0,0.2,0,0.3,0,0.5L113.7,135.2z"/>
<circle class="st6" cx="124.8" cy="223.6" r="84.5"/>
<path class="st5" d="M98.8,192.8L64.2,133c-0.9-1.6-0.4-3.7,1.2-4.7c0.6-0.3,1.3-0.5,2-0.4l115.1,9.1c1.9,0.2,3.3,1.8,3.1,3.7
	c-0.1,0.7-0.3,1.3-0.8,1.9l-43.6,53.6c-9,11.1-25.4,12.8-36.5,3.7C102.5,197.9,100.4,195.5,98.8,192.8z"/>
<circle class="st2" cx="177.2" cy="154.9" r="20.4"/>
<circle class="st4" cx="177.2" cy="154.9" r="4.4"/>
<circle class="st2" cx="69.7" cy="146.4" r="20.4"/>
<circle class="st4" cx="69.7" cy="146.4" r="4.4"/>
<path class="st4" d="M123,184.3c-0.7,0-1.5,0-2.2-0.1c-15.4-1.2-26.8-14.6-25.6-30l3.3,0.3c-1.1,13.5,9,25.4,22.6,26.4
	s25.4-9,26.4-22.6l3.3,0.3C149.6,173.1,137.5,184.3,123,184.3z"/>
<path class="st2" d="M120.9,284l-23.6,3.8c-3.3,0.5-6.3-1.7-6.8-4.9L83,236.4c-0.5-3.3,1.7-6.3,4.9-6.8l23.6-3.8
	c3.3-0.5,6.3,1.7,6.8,4.9l7.5,46.5C126.4,280.5,124.1,283.5,120.9,284z"/>
<path class="st4" d="M101.4,244.2H98c0.3,0.8,0.9,1.5,1.7,2l-3.8,1.5c1.2,1.9,4.4,2.5,6.9,1.5l0,0l-0.7,1.7c-0.1,0.2,0,0.5,0.2,0.6
	c0.1,0.1,0.2,0.1,0.4,0c0.1,0,0.2-0.1,0.2-0.2l1.1-2.6l0,0l0.6,1.5c0.1,0.2,0.4,0.4,0.6,0.2c0.2-0.1,0.4-0.4,0.2-0.6l0,0l-0.6-1.5
	l0.9-0.3l0.6,1.5c0.1,0.2,0.4,0.4,0.6,0.3c0.2-0.1,0.4-0.4,0.3-0.6l-0.6-1.5l0,0C105.8,245.5,103.7,244.1,101.4,244.2z"/>
<path class="st4" d="M106.4,243.5l-0.6,0.2c-0.2-0.6-0.3-1.3-0.3-1.9c0-0.2-0.2-0.4-0.4-0.4c-0.1,0-0.1,0-0.2,0
	c-0.1,0.1-0.2,0.2-0.3,0.3c-0.1,0.8,0,1.6,0.3,2.3c0.6,1.6,2.1,2.6,3.8,2.6h0.2l-1-2.5C107.8,243.6,107.1,243.3,106.4,243.5z"/>
<path class="st4" d="M109.6,261.8H58.3c-9.8,0-17.7-7.9-17.7-17.7c0,0,0,0,0,0h3.3c0,7.9,6.4,14.4,14.4,14.4h50.1l7.6-6.8l2.2,2.5
	L109.6,261.8z"/>
<path class="st4" d="M109.6,221.8H58.3c-9.8,0-17.7-7.9-17.7-17.7h3.3c0,7.9,6.4,14.4,14.4,14.4h50.1l7.6-6.8l2.2,2.5L109.6,221.8z"
	/>
<path class="st0" d="M313.9,387h-47.8c-10.3,0-18.6-8.3-18.6-18.6v-56.6c0-8.4-6.8-15.2-15.2-15.2H131.1c-7.4,0-14.2-4.4-17.1-11.3
	l3.1-1.3c2.4,5.6,7.9,9.3,14,9.3h101.2c10.3,0,18.6,8.3,18.6,18.6v56.6c0,8.4,6.8,15.2,15.2,15.2h47.8c8.4,0,15.2-6.8,15.2-15.2V348
	h3.3v20.4C332.5,378.6,324.2,387,313.9,387z"/>
</svg>
